<?xml version="1.0" encoding="UTF-8"?>
<svg version="1.1" xmlns="http://www.w3.org/2000/svg" width="128" height="128">
<path d="M0 0 C12.26002206 10.49425784 21.19631465 25.78207667 22.92456055 41.99829102 C23.06045793 44.83975923 23.09290403 47.65553401 23.0625 50.5 C23.05114014 52.00385254 23.05114014 52.00385254 23.03955078 53.53808594 C22.65388971 70.99699085 15.73734238 85.62930453 3.625 98.1875 C-3.50759052 104.46262062 -12.32411789 111.37905343 -22.06640625 112.49609375 C-23.20916016 112.34333984 -23.20916016 112.34333984 -24.375 112.1875 C-26.5952096 108.8571856 -26.63353955 107.7101451 -26.68359375 103.8203125 C-26.70873047 102.76972656 -26.73386719 101.71914062 -26.75976562 100.63671875 C-26.79479704 98.42844217 -26.82607417 96.22010269 -26.85351562 94.01171875 C-26.8931543 92.43197266 -26.8931543 92.43197266 -26.93359375 90.8203125 C-26.95377563 89.38002686 -26.95377563 89.38002686 -26.97436523 87.91064453 C-27.44075869 84.74053328 -28.64827808 82.85302497 -30.375 80.1875 C-30.375 79.5275 -30.375 78.8675 -30.375 78.1875 C-29.54097656 78.04054688 -28.70695312 77.89359375 -27.84765625 77.7421875 C-18.76839136 75.93257457 -11.94939496 73.49510418 -5.9375 66.25 C-1.86203368 58.26208601 -1.41928738 49.99304635 -2.375 41.1875 C-3.4679831 38.51787926 -4.79070961 36.20385215 -6.265625 33.73046875 C-8.06724284 29.60070391 -7.69059974 25.59903157 -7.453125 21.16796875 C-7.37834617 18.31515638 -7.70112617 15.9493617 -8.375 13.1875 C-10.10651972 13.78488947 -11.83512147 14.39073967 -13.5625 15 C-14.52542969 15.33644531 -15.48835938 15.67289063 -16.48046875 16.01953125 C-19.41476305 17.1034785 -19.41476305 17.1034785 -22 18.84375 C-25.05885292 20.57441678 -27.13678029 20.03515996 -30.51953125 19.51953125 C-34.14076743 19.09845728 -37.73480131 19.05997413 -41.375 19.0625 C-42.42482056 19.05935791 -42.42482056 19.05935791 -43.49584961 19.05615234 C-47.17437736 19.07433502 -50.63835101 19.32522572 -54.25 20 C-58.91294666 20.65976683 -62.07188881 18.71216073 -66.06640625 16.46875 C-68.73947625 14.98521877 -71.44306169 14.03621898 -74.375 13.1875 C-75.31899233 17.05643825 -75.33747153 20.41047449 -75.125 24.375 C-75.06144159 29.10480508 -75.4532554 32.00131593 -77.875 36.0625 C-81.91846035 43.10409431 -81.31387899 51.14192132 -79.86328125 58.9375 C-78.14914145 64.80322693 -75.35700312 69.27732007 -70.1796875 72.59375 C-64.43253764 75.69252673 -58.81773774 77.26906717 -52.375 78.1875 C-52.67148437 78.77015625 -52.96796875 79.3528125 -53.2734375 79.953125 C-54.24717266 81.92821901 -55.14225601 83.91010511 -56 85.9375 C-56.45375 87.01 -56.9075 88.0825 -57.375 89.1875 C-62.07676809 89.95873864 -66.0727484 90.58063256 -70.6875 89.1875 C-73.61819988 87.00651404 -75.17177987 84.85080558 -77.15625 81.8359375 C-79.71503797 78.37501275 -83.24985821 76.95141515 -87.375 76.1875 C-86.26125 77.239375 -86.26125 77.239375 -85.125 78.3125 C-82.00628893 81.57297066 -79.43804717 84.91092866 -77.51953125 89.01953125 C-75.81573681 92.55360268 -74.42771849 94.5593849 -70.75 96.125 C-66.01200862 97.59109545 -61.28439827 97.45912654 -56.375 97.1875 C-56.32113371 99.31222576 -56.28226929 101.43733652 -56.25 103.5625 C-56.22679687 104.74585937 -56.20359375 105.92921875 -56.1796875 107.1484375 C-56.375 110.1875 -56.375 110.1875 -58.375 112.1875 C-70.10611083 112.1875 -80.27459969 104.00031213 -88.375 96.1875 C-99.8346926 83.16188668 -105.99823233 68.25129162 -105.8125 50.875 C-105.80492676 49.87243164 -105.79735352 48.86986328 -105.78955078 47.83691406 C-105.39438475 29.94771908 -98.04659676 14.45008085 -85.1328125 2.03125 C-60.50977792 -18.95887784 -25.62619773 -19.38643442 0 0 Z " fill="#FFFFFF" transform="translate(105.375,14.8125)"/>
</svg>
